<?xml version="1.0" encoding="UTF-8" standalone="no"?>
<svg
   xmlns:dc="http://purl.org/dc/elements/1.1/"
   xmlns:cc="http://creativecommons.org/ns#"
   xmlns:rdf="http://www.w3.org/1999/02/22-rdf-syntax-ns#"
   xmlns:svg="http://www.w3.org/2000/svg"
   xmlns="http://www.w3.org/2000/svg"
   xmlns:sodipodi="http://sodipodi.sourceforge.net/DTD/sodipodi-0.dtd"
   xmlns:inkscape="http://www.inkscape.org/namespaces/inkscape"
   viewBox="0 0 48 48"
   style="display:inline;enable-background:new"
   version="1.0"
   id="svg11300"
   height="48"
   width="48"
   sodipodi:docname="org.xfce.about.svg"
   inkscape:version="0.92.4 (5da689c313, 2019-01-14)">
  <sodipodi:namedview
     pagecolor="#ffffff"
     bordercolor="#666666"
     borderopacity="1"
     objecttolerance="10"
     gridtolerance="10"
     guidetolerance="10"
     inkscape:pageopacity="0"
     inkscape:pageshadow="2"
     inkscape:window-width="1920"
     inkscape:window-height="1019"
     id="namedview35"
     showgrid="true"
     inkscape:zoom="16"
     inkscape:cx="17.763486"
     inkscape:cy="20.435795"
     inkscape:window-x="0"
     inkscape:window-y="0"
     inkscape:window-maximized="1"
     inkscape:current-layer="svg11300"
     showguides="true">
    <inkscape:grid
       type="xygrid"
       id="grid858"
       empspacing="4" />
  </sodipodi:namedview>
  <title
     id="title4162">Adwaita Icon Template</title>
  <defs
     id="defs3">
    <linearGradient
       id="linearGradient969">
      <stop
         id="stop957"
         offset="0"
         style="stop-color:#d2d8dc;stop-opacity:1" />
      <stop
         style="stop-color:#f1f3f5;stop-opacity:1"
         offset="0.04166667"
         id="stop959" />
      <stop
         id="stop961"
         offset="0.08333334"
         style="stop-color:#d2d8dc;stop-opacity:1" />
      <stop
         style="stop-color:#d2d8dc;stop-opacity:1"
         offset="0.91666669"
         id="stop963" />
      <stop
         id="stop965"
         offset="0.95833331"
         style="stop-color:#f1f3f5;stop-opacity:1" />
      <stop
         id="stop967"
         offset="1"
         style="stop-color:#bcc5ca;stop-opacity:1" />
    </linearGradient>
    <linearGradient
       id="linearGradient901">
      <stop
         id="stop889"
         offset="0"
         style="stop-color:#a7b0b7;stop-opacity:1" />
      <stop
         style="stop-color:#f1f3f5;stop-opacity:1"
         offset="0.04166667"
         id="stop891" />
      <stop
         id="stop893"
         offset="0.08333334"
         style="stop-color:#d2d8dc;stop-opacity:1" />
      <stop
         style="stop-color:#d2d8dc;stop-opacity:1"
         offset="0.91666669"
         id="stop895" />
      <stop
         id="stop897"
         offset="0.95833331"
         style="stop-color:#f1f3f5;stop-opacity:1" />
      <stop
         id="stop899"
         offset="1"
         style="stop-color:#a7b0b7;stop-opacity:1" />
    </linearGradient>
  </defs>
  <metadata
     id="metadata4">
    <rdf:RDF>
      <cc:Work
         rdf:about="">
        <dc:format>image/svg+xml</dc:format>
        <dc:type
           rdf:resource="http://purl.org/dc/dcmitype/StillImage" />
        <dc:creator>
          <cc:Agent>
            <dc:title>GNOME Design Team</dc:title>
          </cc:Agent>
        </dc:creator>
        <dc:source />
        <cc:license
           rdf:resource="http://creativecommons.org/licenses/by-sa/4.0/" />
        <dc:title>Adwaita Icon Template</dc:title>
        <dc:subject>
          <rdf:Bag />
        </dc:subject>
        <dc:date />
        <dc:rights>
          <cc:Agent>
            <dc:title />
          </cc:Agent>
        </dc:rights>
        <dc:publisher>
          <cc:Agent>
            <dc:title />
          </cc:Agent>
        </dc:publisher>
        <dc:identifier />
        <dc:relation />
        <dc:language />
        <dc:coverage />
        <dc:description />
        <dc:contributor>
          <cc:Agent>
            <dc:title />
          </cc:Agent>
        </dc:contributor>
      </cc:Work>
      <cc:License
         rdf:about="http://creativecommons.org/licenses/by-sa/4.0/">
        <cc:permits
           rdf:resource="http://creativecommons.org/ns#Reproduction" />
        <cc:permits
           rdf:resource="http://creativecommons.org/ns#Distribution" />
        <cc:requires
           rdf:resource="http://creativecommons.org/ns#Notice" />
        <cc:requires
           rdf:resource="http://creativecommons.org/ns#Attribution" />
        <cc:permits
           rdf:resource="http://creativecommons.org/ns#DerivativeWorks" />
        <cc:requires
           rdf:resource="http://creativecommons.org/ns#ShareAlike" />
      </cc:License>
    </rdf:RDF>
  </metadata>
  <path
     inkscape:connector-curvature="0"
     d="m 23.999998,4.4998159 c 1.383393,0 5.843422,11.1316431 6.962613,11.9441121 1.119188,0.81249 13.093068,1.610799 13.520564,2.925389 0.427492,1.314591 -8.78994,8.992659 -9.217431,10.307251 -0.427494,1.314592 2.512739,12.939634 1.393552,13.752105 -1.119192,0.812486 -11.275905,-5.573882 -12.6593,-5.573882 -1.383391,0 -11.540106,6.386338 -12.659295,5.573882 C 10.221513,42.616182 13.161744,30.99116 12.734254,29.676568 12.306762,28.361976 3.089333,20.6839 3.516824,19.369317 c 0.427493,-1.31459 12.401374,-2.11293 13.520561,-2.925389 1.11919,-0.812469 5.579222,-11.9441121 6.962613,-11.9441121 z"
     id="path1307-3"
     style="display:inline;overflow:visible;visibility:visible;fill:#ad7702;fill-opacity:1;fill-rule:nonzero;stroke:#ad7702;stroke-width:0.99962765;stroke-linecap:butt;stroke-linejoin:round;stroke-miterlimit:4;stroke-dasharray:none;stroke-dashoffset:0;stroke-opacity:1;marker:none;enable-background:new" />
  <path
     inkscape:connector-curvature="0"
     d="m 23.999998,3.4998139 c 1.383393,0 5.843422,11.1316451 6.962613,11.9441141 1.119188,0.81249 13.093068,1.610799 13.520564,2.925389 0.427492,1.314591 -8.78994,8.992659 -9.217431,10.307251 -0.427494,1.314592 2.512739,12.939634 1.393552,13.752105 -1.119192,0.812486 -11.275905,-5.573882 -12.6593,-5.573882 -1.383391,0 -11.540106,6.386338 -12.659295,5.573882 C 10.221513,41.616182 13.161744,29.99116 12.734254,28.676568 12.306762,27.361976 3.0893325,19.6839 3.5168242,18.369317 3.9443166,17.054727 15.918198,16.256387 17.037385,15.443928 18.156575,14.631459 22.616607,3.4998139 23.999998,3.4998139 Z"
     id="path1307"
     style="display:inline;overflow:visible;visibility:visible;fill:#f9da02;fill-opacity:1;fill-rule:nonzero;stroke:#ad7702;stroke-width:0.99962765;stroke-linecap:butt;stroke-linejoin:round;stroke-miterlimit:4;stroke-dasharray:none;stroke-dashoffset:0;stroke-opacity:1;marker:none" />
  <g
     style="fill:#ad7702;fill-opacity:0.5;stroke:#ad7702;stroke-width:4;stroke-opacity:1"
     id="g889"
     transform="matrix(0.13836934,0,0,0.13836934,-10.462993,-28.02604)">
    <path
       style="fill:#ad7702;fill-opacity:1;fill-rule:evenodd;stroke:#ad7702;stroke-width:1.00000003pt;stroke-linecap:butt;stroke-linejoin:miter;stroke-opacity:1"
       id="path875"
       transform="translate(4.86564,17.0296)"
       d="m 143.756,326.774 c 0.538,-0.09 13.953,6.991 22.97,9.438 16.079,4.109 30.756,16.476 37.85,23.58 0.526,0.608 6.093,-4.168 11.919,-3.824 7.958,0.482 32.582,7.406 35.872,2.691 1.995,-2.768 1.852,-6.164 4.341,-7.555 1.34,-0.375 -4.981,-11.936 1.737,-15.64 4.79,-2.394 8.849,11.009 10.079,12.511 0.551,0.672 3.474,0.836 3.128,-0.695 -0.375,-1.663 -5.103,-14.524 0.695,-16.682 9.417,-3.729 7.748,16.456 7.993,17.03 0.521,1.222 32.797,2.164 34.754,16.682 1.132,7.99 -25.858,18.317 -28.498,20.157 -2.639,1.84 -2.419,4.783 -1.39,6.604 1.183,1.975 9.046,8.641 7.994,11.816 -0.723,1.834 -15.398,-4.888 -16.335,-3.475 -2.137,2.699 10.683,9.455 6.256,14.249 -1.755,1.148 -21.947,-8.454 -21.896,-8.341 -0.542,0.206 -28.532,5.113 -50.046,-1.391 -0.758,-0.214 -13.808,12.606 -15.292,12.165 -2.029,-0.744 2.991,-11.15 2.433,-13.207 -0.912,-1.146 -9.251,4.653 -9.731,1.738 -0.574,-3.831 7.318,-8.235 6.951,-10.774 -2.035,-14.424 0.909,-22.847 5.908,-29.888 1.667,-2.592 -19.592,-18.646 -34.983,-24.982 -15.39,-6.336 -23.624,-11.706 -22.709,-12.207 z"
       inkscape:connector-curvature="0" />
    <path
       style="fill:#ad7702;fill-opacity:1;fill-rule:evenodd;stroke:#ad7702;stroke-width:0.60000001pt;stroke-linecap:butt;stroke-linejoin:miter;stroke-opacity:1"
       id="path877"
       d="m 286.934,392.031 c -0.169,-0.59 10.503,-7.045 12.048,-5.561 2.781,1.008 -11.95,6.31 -12.048,5.561 z"
       inkscape:connector-curvature="0" />
    <path
       style="fill:#ad7702;fill-opacity:1;fill-rule:evenodd;stroke:#ad7702;stroke-width:0.60000001pt;stroke-linecap:butt;stroke-linejoin:miter;stroke-opacity:1"
       id="path879"
       d="m 292.031,397.901 c -0.94,-0.568 6.389,-9.114 8.187,-8.187 2.625,2.608 -8.31,8.39 -8.187,8.187 z"
       inkscape:connector-curvature="0" />
    <path
       style="fill:#ad7702;fill-opacity:1;fill-rule:evenodd;stroke:#ad7702;stroke-width:0.60000001pt;stroke-linecap:butt;stroke-linejoin:miter;stroke-opacity:1"
       id="path881"
       d="m 320.916,358.358 c -0.891,-0.737 -7.878,10.287 -6.333,11.431 0.929,0.695 6.731,-11.038 6.333,-11.431 z"
       inkscape:connector-curvature="0" />
    <ellipse
       style="fill:#ad7702;fill-opacity:1;fill-rule:evenodd;stroke:#ad7702;stroke-width:0.60000001pt;stroke-linecap:butt;stroke-linejoin:miter;stroke-opacity:1"
       id="ellipse883"
       transform="matrix(0.9253,0,0,0.933788,22.0283,24.352)"
       ry="3.398196"
       rx="3.012037"
       cy="374.58655"
       cx="288.86475" />
    <path
       style="fill:#ad7702;fill-opacity:1;fill-rule:evenodd;stroke:#ad7702;stroke-width:0.60000001pt;stroke-linecap:butt;stroke-linejoin:miter;stroke-opacity:1"
       id="path885"
       transform="translate(-8.0321,-1.54463)"
       d="m 320.916,358.358 c -0.441,-0.512 -2.781,11.368 -1.699,11.894 0.929,0.695 2.547,-11.276 1.699,-11.894 z"
       inkscape:connector-curvature="0" />
    <path
       style="fill:#ad7702;fill-opacity:1;fill-rule:evenodd;stroke:#ad7702;stroke-width:0.60000001pt;stroke-linecap:butt;stroke-linejoin:miter;stroke-opacity:1"
       id="path887"
       transform="translate(-38.3069,14.983)"
       d="m 321.366,357.908 c -2.771,1.959 1.521,13.045 8.58,6.572 -5.546,0.163 -7.396,-1.461 -8.58,-6.572 z"
       inkscape:connector-curvature="0" />
  </g>
</svg>
